{"title":"Don.Juan.DeMarco.1994.iNTERNAL.DVDRip.XviD-EXViDiNT","uid":6980292,"size":746344099,"categoryP":"video","categoryS":"movies","magnet":"?xt=urn:btih:349243c1d39aa5964f5431d6278c8d45195fef41&amp;dn=Don.Juan.DeMarco.1994.iNTERNAL.DVDRip.XviD-EXViDiNT&amp;tr=udp%3A%2F%2Ftracker.openbittorrent.com%3A80&amp;tr=udp%3A%2F%2Fopen.demonii.com%3A1337&amp;tr=udp%3A%2F%2Ftracker.coppersurfer.tk%3A6969&amp;tr=udp%3A%2F%2Fexodus.desync.com%3A6969","seeders":6,"leechers":0,"uploader":"TvTeam","files":6,"time":1327380694,"description":". \n &lt;a href=&quot;\nhttp://www.torrenting.com&quot; rel=&quot;nofollow&quot; target=&quot;_NEW&quot;&gt;\nhttp://www.torrenting.com&lt;/a&gt;          :     Once &amp; For all ;)\n\n\n               www . Torrenting . Com \n\n(((((((((((((= Enjoy No RAR releases =))))))))))))))))))))\n\n\n...................................NFO:....................................\n\n.                                                                                                     \n       \n     \n     \n       \n       \n     \n     \n                                         \n                                         \n                EXVID                    \n                                         \n         \n                                         \n         Filled the Archives             \n                                         \n         \n                                         \n                With:                    \n                                         \n         \n                                         \n                                    \n     E240                           \n                                    \n     SP               (C) 2009      \n                                         \n     \n     \n     \n                                                                                  \n                                                                                   \n            Don.Juan.DeMarco.1994.iNTERNAL.DVDRip.XviD-EXViDiNT                     \n                                                                                   \n                                                                                  \n     \n                                                                                               \nEXViD aims to iNTERNAL those releases which have been lost in the archives.\nEXViD aims to PRE non-internal releases which have poor sources and are likely skipped by others. &lt;a href=&quot;\nhttp://www.imdb.com/title/tt0112883/&quot; rel=&quot;nofollow&quot; target=&quot;_NEW&quot;&gt;\nhttp://www.imdb.com/title/tt0112883/&lt;/a&gt;\nSubtitles: EN, FR, ES\nDate: 2012.01\n\nDirector: Jeremy Leven\n\nGenres: Comedy | Drama | Romance\n\nPlot:\nA psychiatrist must cure a young patient that presents himself as Don Juan, the greatest lover \nin the world. \n\nCast:\nMarlon Brando\t...\tDr. Jack Mickler\nJohnny Depp\t...\tDon Juan\nFaye Dunaway\t...\tMarilyn Mickler\nGraldine Pailhas\t...\tDoa Ana\nBob Dishy\t...\tDr. Paul Showalter\nRachel Ticotin\t...\tDoa Inez\nTalisa Soto\t...\tDoa Julia\nMarita Geraghty\t...\tWoman in Restaurant\nRichard C. Sarafian\t...\tDetective Sy Tobias\nTresa Hughes\t...\tGrandmother DeMarco\nStephen Singer\t...\tDr. Bill Dunsmore\nFranc Luz\t...\tDon Antonio\nCarmen Argenziano\t...\tDon Alfonzo\nJo Champa\t...\tSultana Gulbeyaz\nEsther Scott\t...\tNurse Alvira\n\nStats:\nFormat                                   : AVI\nFormat/Info                              : Audio Video Interleave\nFile size                                : 702 MiB\nDuration                                 : 1h 37mn\nOverall bit rate mode                    : Variable\nOverall bit rate                         : 1 011 Kbps\n\nVideo\nID                                       : 0\nFormat                                   : MPEG-4 Visual\nFormat profile                           : Advanced Simple@L5\nFormat settings, BVOP                    : 2\nFormat settings, QPel                    : No\nFormat settings, GMC                     : No warppoints\nFormat settings, Matrix                  : Default (H.263)\nCodec ID                                 : XVID\nCodec ID/Hint                            : XviD\nDuration                                 : 1h 37mn\nBit rate                                 : 878 Kbps\nWidth                                    : 576 pixels\nHeight                                   : 304 pixels\nDisplay aspect ratio                     : 1.895\nFrame rate                               : 23.976 fps\nColor space                              : YUV\nChroma subsampling                       : 4:2:0\nBit depth                                : 8 bits\nScan type                                : Progressive\nCompression mode                         : Lossy\nBits/(Pixel*Frame)                       : 0.209\nStream size                              : 610 MiB (87%)\nWriting library                          : XviD 64\n\nAudio\nID                                       : 1\nFormat                                   : MPEG Audio\nFormat version                           : Version 1\nFormat profile                           : Layer 3\nMode                                     : Joint stereo\nMode extension                           : MS Stereo\nCodec ID                                 : 55\nCodec ID/Hint                            : MP3\nDuration                                 : 1h 37mn\nBit rate mode                            : Variable\nBit rate                                 : 120 Kbps\nChannel(s)                               : 2 channels\nSampling rate                            : 48.0 KHz\nCompression mode                         : Lossy\nStream size                              : 83.6 MiB (12%)\nAlignment                                : Aligned on interleaves\nInterleave, duration                     : 24 ms (0.58 video frame)\nInterleave, preload duration             : 494 ms\n\n\n\nRelease notes:\nEnjoy!\n\nLooking for:\n75TB+ Archives\nDUTCH/FLEMiSH Archives\n                                                                                                    \nGreets: CRBS EPiSODE FiCO FLS iLS KLASSiGER LiPSYNC MADE NODLABS RUNNER SPRiNTER      \n   \n\n                                                                    ASCII DONE BY XX^NFO 2oo9","torrent":{"xt":"urn:btih:349243c1d39aa5964f5431d6278c8d45195fef41","amp;dn":"Don.Juan.DeMarco.1994.iNTERNAL.DVDRip.XviD-EXViDiNT","amp;tr":["udp%3A%2F%2Ftracker.openbittorrent.com%3A80","udp%3A%2F%2Fopen.demonii.com%3A1337","udp%3A%2F%2Ftracker.coppersurfer.tk%3A6969","udp%3A%2F%2Fexodus.desync.com%3A6969"],"infoHash":"349243c1d39aa5964f5431d6278c8d45195fef41","infoHashBuffer":{"type":"Buffer","data":[52,146,67,193,211,154,165,150,79,84,49,214,39,140,141,69,25,95,239,65]},"announce":[],"urlList":[]}}